<svg width="40" height="35" viewBox="0 0 40 35" fill="none" xmlns="http://www.w3.org/2000/svg">
<path d="M20.0017 0.559809L19.1067 0V0.00375624L19.1037 0.00876656L19.0977 0.0250468L19.0767 0.078899L19.0067 0.266754C18.6786 1.18496 18.4318 2.14541 18.2707 3.13093C18.0067 4.78656 17.9197 7.23745 19.2947 8.95946C19.9197 9.74219 20.0067 11.0484 19.7707 12.525C19.6308 13.3764 19.4126 14.2047 19.1207 14.9934L19.1087 15.0247L19.1067 15.0284L20.0017 15.5883C20.8957 16.1481 20.8967 16.1468 20.8967 16.1468V16.1443L20.8997 16.1393L20.9057 16.123L20.9267 16.0692L20.9967 15.8813C21.3248 14.9631 21.5716 14.0027 21.7327 13.0171C21.9967 11.3615 22.0837 8.91062 20.7087 7.18861C20.0837 6.40588 19.9967 5.09965 20.2327 3.62311C20.3726 2.77166 20.5908 1.94335 20.8827 1.15469L20.8947 1.12338L20.8967 1.11962L20.0017 0.559809Z" fill="#1B71A1"/>
<path fill-rule="evenodd" clip-rule="evenodd" d="M0 23.725C0 23.3929 0.105357 23.0743 0.292893 22.8395C0.48043 22.6046 0.734784 22.4727 1 22.4727H39C39.2652 22.4727 39.5196 22.6046 39.7071 22.8395C39.8946 23.0743 40 23.3929 40 23.725C40 24.0572 39.8946 24.3757 39.7071 24.6106C39.5196 24.8455 39.2652 24.9774 39 24.9774H36C36 27.6346 35.1571 30.183 33.6569 32.0619C32.1566 33.9408 30.1217 34.9964 28 34.9964H12C9.87827 34.9964 7.84344 33.9408 6.34315 32.0619C4.84285 30.183 4 27.6346 4 24.9774H1C0.734784 24.9774 0.48043 24.8455 0.292893 24.6106C0.105357 24.3757 0 24.0572 0 23.725ZM6 24.9774H34C34 26.9703 33.3679 28.8816 32.2426 30.2908C31.1174 31.6999 29.5913 32.4916 28 32.4916H12C10.4087 32.4916 8.88258 31.6999 7.75736 30.2908C6.63214 28.8816 6 26.9703 6 24.9774Z" fill="#1B71A1"/>
<path d="M11.1717 2.98828L12.0017 3.68961C12.8307 4.38968 12.8317 4.38843 12.8317 4.38843L12.8187 4.41348L12.7647 4.51993C12.697 4.66086 12.6329 4.80455 12.5727 4.95075C12.3837 5.40062 12.2328 5.8741 12.1227 6.36342C11.8827 7.48053 11.9687 8.3622 12.5967 8.9433C14.2187 10.4487 14.1327 12.6992 13.8107 14.1907C13.6634 14.8535 13.4606 15.4949 13.2057 16.1044C13.1014 16.3557 12.9886 16.6014 12.8677 16.8408L12.8477 16.8808L12.8427 16.8896L12.8347 16.9046L12.8327 16.9096L12.8317 16.9109C12.8317 16.9109 12.8307 16.9134 12.0017 16.2121C11.1727 15.5107 11.1717 15.512 11.1717 15.512L11.1847 15.4882L11.2387 15.3805C11.3059 15.2392 11.37 15.0955 11.4307 14.9497C11.5857 14.5765 11.7637 14.0755 11.8807 13.537C12.1207 12.4199 12.0347 11.5395 11.4067 10.9571C9.78472 9.45177 9.87072 7.20251 10.1927 5.70968C10.3577 4.94323 10.6017 4.26946 10.7977 3.79606C10.9092 3.52801 11.0303 3.26641 11.1607 3.01208L11.1677 2.99705L11.1707 2.99079L11.1717 2.98828ZM29.0017 3.68836C28.1727 2.98703 28.1717 2.98828 28.1717 2.98828V2.99079L28.1677 2.99705L28.1597 3.01208C28.0284 3.26542 27.9075 3.5271 27.7977 3.79606C27.6017 4.26946 27.3577 4.94323 27.1927 5.70968C26.8707 7.20126 26.7847 9.45177 28.4067 10.9571C29.0347 11.5395 29.1207 12.4199 28.8797 13.537C28.7637 14.0755 28.5857 14.5765 28.4297 14.9497C28.354 15.1333 28.2723 15.313 28.1847 15.4882L28.1727 15.5132L29.0017 16.2121C29.8307 16.9134 29.8317 16.9109 29.8317 16.9109V16.9096L29.8357 16.9046L29.8437 16.8896L29.8587 16.8583L29.8687 16.8408L29.9487 16.6779C30.0394 16.4903 30.1251 16.299 30.2057 16.1044C30.4017 15.631 30.6457 14.9572 30.8107 14.1907C31.1327 12.6992 31.2187 10.4487 29.5967 8.9433C28.9687 8.36095 28.8827 7.48053 29.1237 6.36342C29.2397 5.8249 29.4177 5.32395 29.5737 4.95075C29.6494 4.7671 29.7312 4.58744 29.8187 4.41223L29.8307 4.38843L29.0017 3.68836Z" fill="#1B71A1"/>
</svg>
