<svg width="46" height="44" viewBox="0 0 46 44" fill="none" xmlns="http://www.w3.org/2000/svg">
<path d="M15.4273 44C14.1393 44 13.0429 43.6154 12.1383 42.8462C11.2336 42.077 10.7812 41.1457 10.7812 40.0522V30.1327H5.1865C3.749 30.1327 2.52521 29.6959 1.51512 28.8224C0.505042 27.9473 0 26.8987 0 25.6764C0 24.7769 0.28175 23.9458 0.84525 23.1831C1.40875 22.4204 2.16583 21.8566 3.1165 21.4916L21.5625 14.498V11.4522C19.9851 11.1736 18.6875 10.5062 17.6697 9.45023C16.6539 8.39585 16.146 7.18911 16.146 5.83C16.146 4.20037 16.8092 2.82089 18.1355 1.69156C19.4618 0.562225 21.0833 -0.00162611 23 3.52226e-06C24.357 3.52226e-06 25.5971 0.321041 26.7202 0.963115C27.8434 1.60519 28.6858 2.4526 29.2474 3.50534C29.2857 3.56889 29.3269 3.74326 29.371 4.02845C29.371 4.37719 29.2244 4.67622 28.9311 4.92556C28.636 5.17326 28.2843 5.29711 27.876 5.29711C27.5483 5.29711 27.2761 5.23356 27.0595 5.10645C26.8448 4.97608 26.6723 4.78134 26.542 4.52222C26.2296 3.88667 25.76 3.38148 25.1332 3.00667C24.5065 2.63186 23.7954 2.44445 23 2.44445C21.8902 2.44445 20.9492 2.77282 20.1767 3.42956C19.4043 4.0863 19.0181 4.88645 19.0181 5.83C19.0181 6.77356 19.4043 7.57289 20.1767 8.228C20.9492 8.88311 21.8902 9.21148 23 9.21311C23.4102 9.21311 23.7523 9.33045 24.0264 9.56511C24.3005 9.79978 24.4375 10.0899 24.4375 10.4353V14.498L42.826 21.4916C43.7767 21.8566 44.5433 22.4204 45.126 23.1831C45.7087 23.9458 46 24.7769 46 25.6764C46 26.8987 45.4854 27.9473 44.4561 28.8224C43.4288 29.6959 42.1964 30.1327 40.7589 30.1327H35.2188V40.0522C35.2188 41.1441 34.7664 42.0754 33.8617 42.8462C32.9571 43.6154 31.8617 44 30.5756 44H15.4273ZM5.1865 27.6882H11.2412C11.6207 26.9875 12.1766 26.4285 12.9087 26.0113C13.6428 25.5941 14.4823 25.3856 15.4273 25.3856H30.5756C31.5186 25.3856 32.3572 25.5941 33.0913 26.0113C33.8234 26.4269 34.3793 26.9859 34.7588 27.6882H40.7589C41.4259 27.6882 41.9875 27.4927 42.4436 27.1016C42.8979 26.7104 43.125 26.2256 43.125 25.6471C43.125 25.256 43.01 24.8869 42.78 24.5398C42.55 24.1927 42.205 23.9319 41.745 23.7576L23 16.6613L4.3125 23.7576C3.8525 23.9336 3.49792 24.1943 3.24875 24.5398C2.99958 24.8853 2.875 25.2544 2.875 25.6471C2.875 26.224 3.0935 26.7088 3.5305 27.1016C3.9675 27.4927 4.5195 27.6882 5.1865 27.6882ZM15.4273 41.5556H30.5756C31.0912 41.5556 31.5148 41.4146 31.8464 41.1327C32.178 40.8507 32.3438 40.4906 32.3438 40.0522V29.3333C32.3438 28.8933 32.178 28.5332 31.8464 28.2529C31.5148 27.971 31.0912 27.83 30.5756 27.83H15.4244C14.9088 27.83 14.4852 27.971 14.1536 28.2529C13.822 28.5348 13.6562 28.895 13.6562 29.3333V40.0522C13.6562 40.4906 13.822 40.8507 14.1536 41.1327C14.4852 41.4146 14.9098 41.5556 15.4273 41.5556ZM15.4273 27.8276H13.6562H32.3438H15.4273Z" fill="#1B71A1"/>
</svg>
