<svg width="34" height="31" viewBox="0 0 34 31" fill="none" xmlns="http://www.w3.org/2000/svg">
<path d="M0 0V15.3733L0.367461 15.7952L7.84615 23.502V31H15.6923V22.913C15.6975 22.8389 15.8832 18.6607 12.5042 16.426C12.495 16.4206 12.5146 16.3896 12.5042 16.3855C12.495 16.3788 12.4741 16.3896 12.4649 16.3855C10.9153 15.3423 9.31731 14.4905 8.21492 13.605C7.10077 12.7154 6.53846 11.9781 6.53846 10.7826H3.92308C3.92308 12.962 5.15885 14.6158 6.579 15.7534C7.99915 16.891 9.64946 17.728 11.033 18.6593H11.0748C13.1685 20.0125 13.0769 22.8713 13.0769 22.8713V28.3043H10.4615V22.3658L10.0941 21.944L2.61538 14.2371V0H0ZM31.3846 0V14.2371L23.9059 21.944L23.5385 22.3658V28.3043H20.9231V22.8281C20.9231 22.8281 20.8315 20.0112 22.9252 18.6593H22.967C24.3466 17.728 26.0008 16.8883 27.421 15.752C28.8412 14.6172 30.0769 12.962 30.0769 10.7826H27.4615C27.4615 11.9781 26.8992 12.7154 25.7864 13.605C24.6827 14.4891 23.0847 15.341 21.5364 16.3842C21.5259 16.3896 21.505 16.3788 21.4945 16.3842V16.4273C18.1442 18.6377 18.3038 22.7715 18.3077 22.913V31H26.1538V23.502L33.6325 15.7952L34 15.3733V0H31.3846Z" fill="#1B71A1"/>
</svg>
