<svg width="44" height="44" viewBox="0 0 44 44" fill="none" xmlns="http://www.w3.org/2000/svg">
<path d="M39.5599 29.2C40.3308 28.651 40.9447 27.99 41.3642 27.2574C41.7837 26.5248 42 25.7358 42 24.9385C42 24.1411 41.7837 23.3522 41.3642 22.6195C40.9447 21.8869 40.3308 21.226 39.5599 20.6769C37.9818 19.5537 35.8891 18.9275 33.7134 18.9275C31.5377 18.9275 29.445 19.5537 27.867 20.6769L22 25.0769L16.133 20.6769C14.555 19.5537 12.4623 18.9275 10.2866 18.9275C8.11091 18.9275 6.01821 19.5537 4.44013 20.6769C3.66922 21.226 3.05533 21.8869 2.63583 22.6195C2.21633 23.3522 2 24.1411 2 24.9385C2 25.7358 2.21633 26.5248 2.63583 27.2574C3.05533 27.99 3.66922 28.651 4.44013 29.2L22 42L39.5599 29.2ZM22 14.3077C24.1762 14.3077 26.2634 13.6593 27.8022 12.5053C29.341 11.3512 30.2055 9.78595 30.2055 8.15385C30.2055 6.52174 29.341 4.95649 27.8022 3.80242C26.2634 2.64835 24.1762 2 22 2C19.8238 2 17.7366 2.64835 16.1978 3.80242C14.659 4.95649 13.7945 6.52174 13.7945 8.15385C13.7945 9.78595 14.659 11.3512 16.1978 12.5053C17.7366 13.6593 19.8238 14.3077 22 14.3077Z" stroke="#1B71A1" stroke-width="2.5" stroke-linecap="round" stroke-linejoin="round"/>
</svg>
