<svg width="34" height="34" viewBox="0 0 34 34" fill="none" xmlns="http://www.w3.org/2000/svg">
<path d="M13.9693 17.1817C14.8193 18.1836 15.2641 18.4724 16.0743 18.4363L16.1616 16.1798H17.4087M8.96517 14.6364H13.0877C13.1909 12.6417 14.0011 11.2607 16.106 11.026L16.1616 13.093H17.4087M4.48525 22.4528C4.48525 22.4528 2.29295 22.5341 2.18969 21.6224C1.91251 18.8524 1.93919 16.054 2.26912 13.2915C2.4677 11.4322 5.38282 11.2156 6.16919 9.54578C6.47897 8.87786 5.80381 7.66839 6.35983 7.65034C9.75948 7.50592 13.0559 6.83801 15.407 7.03658C17.4775 7.17847 19.4854 7.89766 21.2532 9.13059C23.2231 10.4664 24.8196 11.9557 26.6863 13.093C28.6879 14.3205 31.1106 14.5642 32.5801 16.5047C33.1599 17.299 33.152 21.7578 32.4768 22.1459C31.4616 22.5684 30.372 22.7077 29.2996 22.5521M10.8477 22.4528H17.2737M29.2122 22.4528C29.2122 23.1544 29.0291 23.8402 28.6861 24.4235C28.3431 25.0069 27.8556 25.4615 27.2851 25.73C26.7147 25.9985 26.0871 26.0687 25.4815 25.9318C24.876 25.795 24.3198 25.4571 23.8832 24.9611C23.4466 24.465 23.1493 23.8329 23.0289 23.1448C22.9084 22.4568 22.9702 21.7435 23.2065 21.0954C23.4428 20.4472 23.8429 19.8932 24.3562 19.5034C24.8696 19.1137 25.4731 18.9056 26.0905 18.9056C26.9129 18.9175 27.698 19.2977 28.275 19.9636C28.8521 20.6295 29.1746 21.5273 29.1725 22.4618L29.2122 22.4528ZM10.8 22.4528C10.8 23.1544 10.617 23.8402 10.2739 24.4235C9.93093 25.0069 9.44339 25.4615 8.87299 25.73C8.30258 25.9985 7.67492 26.0687 7.06938 25.9318C6.46384 25.795 5.90762 25.4571 5.47105 24.9611C5.03448 24.465 4.73717 23.8329 4.61672 23.1448C4.49627 22.4568 4.55809 21.7435 4.79436 21.0954C5.03063 20.4472 5.43074 19.8932 5.94409 19.5034C6.45744 19.1137 7.06098 18.9056 7.67838 18.9056C8.49939 18.9175 9.28323 19.2965 9.86009 19.9604C10.437 20.6243 10.7604 21.5198 10.7603 22.4528H10.8Z" stroke="#1B71A1" stroke-width="2" stroke-linecap="round" stroke-linejoin="round"/>
</svg>
