<svg width="36" height="36" viewBox="0 0 36 36" fill="none" xmlns="http://www.w3.org/2000/svg">
<path d="M24.8 7.8C24.8 4.5938 24.8 2.9924 23.8038 1.9962C22.8076 1 21.2062 1 18 1C14.7938 1 13.1924 1 12.1962 1.9962C11.2 2.9924 11.2 4.5938 11.2 7.8M1 21.4C1 14.9893 1 11.7831 2.9924 9.7924C4.9848 7.8017 8.1893 7.8 14.6 7.8H21.4C27.8107 7.8 31.0169 7.8 33.0076 9.7924C34.9983 11.7848 35 14.9893 35 21.4C35 27.8107 35 31.0169 33.0076 33.0076C31.0152 34.9983 27.8107 35 21.4 35H14.6C8.1893 35 4.9831 35 2.9924 33.0076C1.0017 31.0152 1 27.8107 1 21.4Z" stroke="#1B71A1" stroke-width="2"/>
<path d="M20.5492 21.4016H15.4492M17.9992 18.8516V23.9516" stroke="#1B71A1" stroke-width="2" stroke-linecap="round"/>
<path d="M17.9992 28.2016C21.7548 28.2016 24.7992 25.1571 24.7992 21.4016C24.7992 17.646 21.7548 14.6016 17.9992 14.6016C14.2437 14.6016 11.1992 17.646 11.1992 21.4016C11.1992 25.1571 14.2437 28.2016 17.9992 28.2016Z" stroke="#1B71A1" stroke-width="2"/>
</svg>
